<svg id="Capa_1" data-name="Capa 1" xmlns="http://www.w3.org/2000/svg" viewBox="0 0 143.74 168.04"><defs><style>.cls-1,.cls-2{fill:#fff;}.cls-2{fill-rule:evenodd;}</style></defs><polygon class="cls-1" points="90.75 15.77 142.05 135.6 111.78 135.6 106.04 121.92 106.04 121.92 81 62.22 81 62.23 76.18 50.68 90.75 15.77"/><path class="cls-1" d="M352.28,297.08h23.57l1.38,3.21L357.74,347l-8.49,20.08v0L346.32,374h0c-4.65,11.17-13.5,32.43-15.74,37.79l-.14.34-.06.14Z" transform="translate(-289.23 -290.94)"/><polygon class="cls-1" points="4.93 135.6 56.02 16.28 33.38 135.6 4.93 135.6"/><polygon class="cls-2" points="111.78 135.6 90.75 15.77 76.18 50.68 111.78 135.6"/><polygon class="cls-2" points="88 9.35 86.62 6.14 63.05 6.14 73.93 43.05 88 9.35"/><polygon class="cls-2" points="33.38 135.6 56.02 16.28 34.59 66.33 33.38 135.6"/><path class="cls-2" d="M396.11,290.94a36.39,36.39,0,0,1,13.64,70.12l-2.16-5a30.92,30.92,0,1,0-24.33-56.83l-2.15-5a36.27,36.27,0,0,1,15-3.23" transform="translate(-289.23 -290.94)"/><path class="cls-2" d="M408.82,319.08a2.88,2.88,0,0,1-2.23-2.24l3-.81Zm-15.67,2.63a5.4,5.4,0,0,0,1.05-.73c1-1.1,4.24-8.18,5.25-9a44.48,44.48,0,0,1,2.58,4.54c3.37,5.92,1.24,3.8,7.17,7.16a42.58,42.58,0,0,1,4.53,2.59c-.86,1-7.94,4.21-9,5.24-.66.62-2.73,4.86-4.18,7.42l1.79,4.2,2.28-4.17L415,341.8l-2.86-10.19,2.4-1.47c.83-.44,1.53-.85,2.31-1.28,1.06-.59,3.92-2,4.51-2.69l-9.31-5.05,2.9-10.48-10.36,2.87-5.16-9.18-5.39,9.23-5-1.38,1.84,4.29a3.8,3.8,0,0,1,1.3.57,6.23,6.23,0,0,1-.6,1.08Zm4.12,9.63a5.52,5.52,0,0,0,7.63-5.8c-.66-5.92-8.93-6.2-10.69-1.35Zm3.86-4.44a1.83,1.83,0,1,1-3.37-1.44C398.61,323.44,402.06,324.78,401.13,326.9Zm7.5,6.56a8.16,8.16,0,0,1,1,3l-3-.79A3,3,0,0,1,408.63,333.46Z" transform="translate(-289.23 -290.94)"/><path class="cls-1" d="M420.55,440.35A1.63,1.63,0,0,0,422,441a2.55,2.55,0,0,0,1.71-.65,2.91,2.91,0,0,0,.95-1.59,1.91,1.91,0,0,0-.23-1.6,1.6,1.6,0,0,0-1.41-.65,2.55,2.55,0,0,0-1.71.65,2.88,2.88,0,0,0-1,1.6,1.93,1.93,0,0,0,.24,1.59m1.2,1.64a2.51,2.51,0,0,1-2.13-.94,2.64,2.64,0,0,1-.4-2.29,4,4,0,0,1,1.44-2.3,3.89,3.89,0,0,1,2.55-.94,2.47,2.47,0,0,1,2.11.94,2.62,2.62,0,0,1,.41,2.3,4.1,4.1,0,0,1-1.45,2.29A3.86,3.86,0,0,1,421.75,442Zm-5-.06a1.59,1.59,0,0,1-1.27-.48,1.57,1.57,0,0,1-.2-1.42l.77-3.4h-1.32l.22-1h1.32l.39-1.73h1.07l-.39,1.73h1.8l-.23,1h-1.79l-.74,3.26a1,1,0,0,0,.06.82.91.91,0,0,0,.73.24,2,2,0,0,0,.79-.13l-.22,1A3.3,3.3,0,0,1,416.75,441.93Zm-7.32-.92a2.47,2.47,0,0,0,1.66-.65,2.9,2.9,0,0,0,1-1.6,1.94,1.94,0,0,0-.23-1.61,1.56,1.56,0,0,0-1.37-.65,2.48,2.48,0,0,0-1.68.65,2.89,2.89,0,0,0-1,1.61,1.92,1.92,0,0,0,.23,1.6A1.58,1.58,0,0,0,409.43,441Zm-.39,1a2.24,2.24,0,0,1-2-.94,2.78,2.78,0,0,1-.36-2.29,4.24,4.24,0,0,1,1.4-2.3,3.57,3.57,0,0,1,2.39-.94,2.41,2.41,0,0,1,1.21.3,1.76,1.76,0,0,1,.73.78l.22-1h1.07l-1.41,6.23h-1.07l.22-1a3.42,3.42,0,0,1-1.09.78A3.23,3.23,0,0,1,409,442Zm-7.57,0a1.7,1.7,0,0,1-1.5-.69,2.21,2.21,0,0,1-.22-1.83l.86-3.83h1.08l-.83,3.66a1.7,1.7,0,0,0,.09,1.25,1,1,0,0,0,.93.46,2,2,0,0,0,1.38-.62,3.18,3.18,0,0,0,.86-1.66l.7-3.09h1.08l-1.42,6.23h-1.07l.22-1A2.64,2.64,0,0,1,401.47,442Zm-8.12-1.63a1.58,1.58,0,0,0,1.38.65,2.47,2.47,0,0,0,1.66-.65,3,3,0,0,0,1-1.6,2,2,0,0,0-.24-1.61,1.56,1.56,0,0,0-1.37-.65,2.49,2.49,0,0,0-1.67.65,3,3,0,0,0-1,1.61A2,2,0,0,0,393.35,440.36Zm-1.44,4.11h-1.07l2-8.83h1.07l-.21,1a3.31,3.31,0,0,1,1.09-.78,3.22,3.22,0,0,1,1.34-.3,2.23,2.23,0,0,1,2,.94,2.8,2.8,0,0,1,.36,2.3,4.19,4.19,0,0,1-1.4,2.29,3.54,3.54,0,0,1-2.38.94,2.39,2.39,0,0,1-1.21-.3,1.73,1.73,0,0,1-.74-.78Zm-5.4-3.46a2.47,2.47,0,0,0,1.66-.65,2.9,2.9,0,0,0,1-1.6,1.94,1.94,0,0,0-.23-1.61,1.56,1.56,0,0,0-1.37-.65,2.52,2.52,0,0,0-1.68.65,2.89,2.89,0,0,0-1,1.61,1.92,1.92,0,0,0,.23,1.6A1.58,1.58,0,0,0,386.51,441Zm-.39,1a2.24,2.24,0,0,1-2-.94,2.78,2.78,0,0,1-.36-2.29,4.24,4.24,0,0,1,1.4-2.3,3.58,3.58,0,0,1,2.39-.94,2.39,2.39,0,0,1,1.21.3,1.84,1.84,0,0,1,.74.78l.21-1h1.07l-1.41,6.23h-1.07l.22-1a3.42,3.42,0,0,1-1.09.78A3.23,3.23,0,0,1,386.12,442Zm-6.88-.12,1.41-6.23h1.07l-.28,1.21a2.38,2.38,0,0,1,.89-.92,2.25,2.25,0,0,1,1.15-.35,2.12,2.12,0,0,1,.47.05l-.25,1.11a1.22,1.22,0,0,0-.56-.1,1.9,1.9,0,0,0-1.28.56,2.91,2.91,0,0,0-.85,1.58l-.7,3.09Zm-3.32,0,2-8.84h1.16l-2,8.84Zm-5.37-5a1.48,1.48,0,0,0-1.14-.45,2.48,2.48,0,0,0-1.38.44,2.58,2.58,0,0,0-1,1.29h3.88A1.68,1.68,0,0,0,370.55,436.91ZM368.17,442a2.37,2.37,0,0,1-2-.92,2.72,2.72,0,0,1-.36-2.31,4.16,4.16,0,0,1,1.39-2.33,3.73,3.73,0,0,1,2.51-.91,2.15,2.15,0,0,1,2,1,3.11,3.11,0,0,1,.16,2.5h-5.07a1.56,1.56,0,0,0,1.61,2,2.45,2.45,0,0,0,2.05-1h1.09a3.59,3.59,0,0,1-1.33,1.44A3.73,3.73,0,0,1,368.17,442Zm-7.55-1a2.49,2.49,0,0,0,1.67-.65,2.9,2.9,0,0,0,1-1.6,1.94,1.94,0,0,0-.23-1.61,1.57,1.57,0,0,0-1.38-.65,2.47,2.47,0,0,0-1.67.65,3,3,0,0,0-1,1.61,2,2,0,0,0,.24,1.6A1.57,1.57,0,0,0,360.62,441Zm-.38,1a2.23,2.23,0,0,1-2-.94,2.78,2.78,0,0,1-.36-2.29,4.19,4.19,0,0,1,1.4-2.3,3.57,3.57,0,0,1,2.39-.94,2.38,2.38,0,0,1,1.2.3,1.73,1.73,0,0,1,.74.78l.93-4.07h1.07l-2.12,9.34h-1.07l.22-1a3.46,3.46,0,0,1-1.1.78A3.22,3.22,0,0,1,360.24,442Zm-11.55-1.64a1.63,1.63,0,0,0,1.42.65,2.55,2.55,0,0,0,1.71-.65,3,3,0,0,0,1-1.59,2,2,0,0,0-.24-1.6,1.6,1.6,0,0,0-1.41-.65,2.55,2.55,0,0,0-1.71.65,2.94,2.94,0,0,0-1,1.6A1.93,1.93,0,0,0,348.69,440.35Zm1.2,1.64a2.51,2.51,0,0,1-2.13-.94,2.64,2.64,0,0,1-.4-2.29,4,4,0,0,1,1.45-2.3,3.89,3.89,0,0,1,2.55-.94,2.45,2.45,0,0,1,2.1.94,2.62,2.62,0,0,1,.41,2.3,4,4,0,0,1-1.45,2.29A3.86,3.86,0,0,1,349.89,442Zm-10.08-.12,1.42-6.23h1.07l-.22,1a2.76,2.76,0,0,1,2.23-1.08,1.8,1.8,0,0,1,1.55.68,2.25,2.25,0,0,1,.23,1.83l-.87,3.84h-1.06l.83-3.68a1.59,1.59,0,0,0-.11-1.23,1.06,1.06,0,0,0-1-.46,2,2,0,0,0-1.43.61,3.15,3.15,0,0,0-.9,1.67l-.7,3.09Zm-4.56,0,1.42-6.23h1.07l-.28,1.21a2.38,2.38,0,0,1,.89-.92,2.25,2.25,0,0,1,1.15-.35,2.12,2.12,0,0,1,.47.05l-.25,1.11a1.25,1.25,0,0,0-.56-.1,1.88,1.88,0,0,0-1.28.56,2.91,2.91,0,0,0-.85,1.58l-.7,3.09Zm-2.21-5a1.45,1.45,0,0,0-1.13-.45,2.51,2.51,0,0,0-1.39.44,2.63,2.63,0,0,0-1,1.29h3.89A1.68,1.68,0,0,0,333,436.91ZM330.67,442a2.35,2.35,0,0,1-2-.92,2.68,2.68,0,0,1-.37-2.31,4.27,4.27,0,0,1,1.39-2.33,3.77,3.77,0,0,1,2.51-.91,2.17,2.17,0,0,1,2,1,3.11,3.11,0,0,1,.15,2.5h-5.07a1.64,1.64,0,0,0,.3,1.42,1.66,1.66,0,0,0,1.32.56,2.42,2.42,0,0,0,2-1H334a3.55,3.55,0,0,1-1.34,1.44A3.72,3.72,0,0,1,330.67,442Zm-5.73-.12,1.41-6.23h1.07L326,441.87Zm2.92-8.11a.9.9,0,0,1-.58.21.59.59,0,0,1-.5-.22.59.59,0,0,1-.1-.54,1,1,0,0,1,.94-.76.57.57,0,0,1,.49.23.6.6,0,0,1,.09.53A1,1,0,0,1,327.86,433.76Zm-8.84,6.6a1.56,1.56,0,0,0,1.37.65,2.49,2.49,0,0,0,1.67-.65,3,3,0,0,0,1-1.6,2,2,0,0,0-.23-1.61,1.58,1.58,0,0,0-1.38-.65,2.47,2.47,0,0,0-1.66.65,3,3,0,0,0-1,1.61A2,2,0,0,0,319,440.36Zm1.31,1.63a2.39,2.39,0,0,1-1.21-.3,1.78,1.78,0,0,1-.74-.78l-.21,1h-1.08l2.12-9.34h1.07l-.92,4.07a3.42,3.42,0,0,1,1.09-.78,3.23,3.23,0,0,1,1.35-.3,2.25,2.25,0,0,1,2,.94,2.76,2.76,0,0,1,.35,2.3,4.18,4.18,0,0,1-1.39,2.29A3.58,3.58,0,0,1,320.33,442Zm-9.24-1.64a1.63,1.63,0,0,0,1.42.65,2.51,2.51,0,0,0,1.7-.65,2.87,2.87,0,0,0,1-1.59,2,2,0,0,0-.23-1.6,1.63,1.63,0,0,0-1.42-.65,2.59,2.59,0,0,0-1.71.65,2.86,2.86,0,0,0-1,1.6A1.93,1.93,0,0,0,311.09,440.35Zm1.19,1.64a2.49,2.49,0,0,1-2.12-.94,2.64,2.64,0,0,1-.41-2.29,4.09,4.09,0,0,1,1.45-2.3,3.89,3.89,0,0,1,2.55-.94,2.48,2.48,0,0,1,2.11.94,2.65,2.65,0,0,1,.41,2.3,4.1,4.1,0,0,1-1.45,2.29A3.88,3.88,0,0,1,312.28,442Zm-8.78,0a3.53,3.53,0,0,1-3-1.32,3.71,3.71,0,0,1-.57-3.25,5.76,5.76,0,0,1,2.05-3.26,5.47,5.47,0,0,1,3.57-1.31,3.71,3.71,0,0,1,2.46.8,3,3,0,0,1,1.1,2h-1.29a2.07,2.07,0,0,0-.87-1.21,2.87,2.87,0,0,0-1.65-.46,4.15,4.15,0,0,0-2.68,1,4.43,4.43,0,0,0-1.53,2.48,2.85,2.85,0,0,0,.41,2.47,2.59,2.59,0,0,0,2.22,1,3.82,3.82,0,0,0,2.43-.84,4.5,4.5,0,0,0,1.5-2.18h-3.29l.25-1.09h4.48a6.12,6.12,0,0,1-2,3.78A5.36,5.36,0,0,1,303.5,442Z" transform="translate(-289.23 -290.94)"/><path class="cls-1" d="M430.49,458.87H422.6L425.08,447H433l-.53,2.53h-5.19l-.44,2.08H431l-.53,2.53h-4.22l-.46,2.18H431Zm-10.21,0h-2.7l1.65-7.9-4.64,7.9h-2.34l-1.39-7.9-1.66,7.9h-2.7L409,447h3a1.59,1.59,0,0,1,.53.08,1.63,1.63,0,0,1,.44.21,1.22,1.22,0,0,1,.31.33,1.12,1.12,0,0,1,.16.43l.83,5.93a2.66,2.66,0,0,1,0,.3v.31c0,.12,0,.24,0,.37a2.53,2.53,0,0,1,.12-.36l.13-.32a2.11,2.11,0,0,1,.16-.3l3.3-5.93a1.88,1.88,0,0,1,.35-.45,2.21,2.21,0,0,1,.47-.33,1.87,1.87,0,0,1,.53-.2,2.05,2.05,0,0,1,.54-.07h2.95Zm-18.62-6.32a1.2,1.2,0,0,0,.51-.13,2.11,2.11,0,0,0,.48-.32,2.74,2.74,0,0,0,.38-.45,1.84,1.84,0,0,0,.21-.51,1.25,1.25,0,0,0,0-.51,1.3,1.3,0,0,0-.19-.45,1.15,1.15,0,0,0-.34-.32.82.82,0,0,0-.46-.13h-2.08l-.59,2.82Zm-3.41,6.32h-2.71L398,447h4.65a4,4,0,0,1,1.2.17,3.25,3.25,0,0,1,.93.47,2.92,2.92,0,0,1,.67.69,3.54,3.54,0,0,1,.4.86,3.86,3.86,0,0,1,.16,1,3.94,3.94,0,0,1-.09,1,4.63,4.63,0,0,1-.29.94,5.19,5.19,0,0,1-.52.91,6.08,6.08,0,0,1-.76.86,7.55,7.55,0,0,1-1,.77l2.26,4.26h-2.31a1.25,1.25,0,0,1-.24,0,1.7,1.7,0,0,1-.8-.39,1.5,1.5,0,0,1-.36-.5l-1.42-2.69H399Zm-5.48,0h-2.71L392.55,447h2.71Zm-3.88-7-.53,2.54H384l-.94,4.5h-2.71L382.85,447h7.89l-.53,2.53H385l-.47,2.28Zm-23.51,1.11a3,3,0,0,0,0,1.3,2.49,2.49,0,0,0,.51,1.06,2.46,2.46,0,0,0,.93.71,2.79,2.79,0,0,0,1.24.27,3.61,3.61,0,0,0,1.35-.27,4.43,4.43,0,0,0,1.23-.71,4.85,4.85,0,0,0,1-1.06,3.78,3.78,0,0,0,.54-1.3,2.81,2.81,0,0,0,0-1.29,2.68,2.68,0,0,0-.51-1.06,2.77,2.77,0,0,0-.93-.72,3,3,0,0,0-1.24-.26,3.82,3.82,0,0,0-1.36.26,4.84,4.84,0,0,0-1.22.72,4.63,4.63,0,0,0-1,1.06A3.68,3.68,0,0,0,365.38,452.94Zm-2.7,0a6.84,6.84,0,0,1,.56-1.61,8.32,8.32,0,0,1,.91-1.44,8.26,8.26,0,0,1,2.64-2.16,7.15,7.15,0,0,1,1.59-.61,6.62,6.62,0,0,1,1.65-.22,5.67,5.67,0,0,1,1.57.22,4.61,4.61,0,0,1,1.33.61,4.38,4.38,0,0,1,1.73,2.16,5.21,5.21,0,0,1,.32,1.44,6.35,6.35,0,0,1-.12,1.61,6.69,6.69,0,0,1-.56,1.61,7.56,7.56,0,0,1-.92,1.45,8.14,8.14,0,0,1-1.21,1.21,7.56,7.56,0,0,1-1.43,1,8,8,0,0,1-1.58.61,6.69,6.69,0,0,1-1.66.21,5.67,5.67,0,0,1-1.57-.21,5.15,5.15,0,0,1-1.32-.61,4.28,4.28,0,0,1-1-1,4.84,4.84,0,0,1-.7-1.21,5.19,5.19,0,0,1-.31-1.45A5.57,5.57,0,0,1,362.68,452.94Zm-4.21-3.32-.42,0a2.22,2.22,0,0,0-.39.12,1.08,1.08,0,0,0-.29.21.65.65,0,0,0-.12.71.82.82,0,0,0,.35.26,4.62,4.62,0,0,0,.62.23c.26.07.55.17.88.29a4.86,4.86,0,0,1,1.14.57,3,3,0,0,1,.8.78,2.7,2.7,0,0,1,.41,1,3.14,3.14,0,0,1,0,1.25,4.15,4.15,0,0,1-.69,1.58,5.52,5.52,0,0,1-1.23,1.23,6.28,6.28,0,0,1-1.57.8,5.37,5.37,0,0,1-1.71.28,4.09,4.09,0,0,1-1.34-.21,3.77,3.77,0,0,1-1.08-.6,3.4,3.4,0,0,1-.77-.92,3.35,3.35,0,0,1-.41-1.16l1-.5a2.53,2.53,0,0,1,.48-.19,2.14,2.14,0,0,1,.49-.07,1.17,1.17,0,0,1,.61.15,5.25,5.25,0,0,1,.49.33c.16.11.32.22.5.32a1.22,1.22,0,0,0,.63.15,2.51,2.51,0,0,0,.56-.08,3.28,3.28,0,0,0,.59-.23,1.81,1.81,0,0,0,.49-.37,1,1,0,0,0,.28-.51.57.57,0,0,0-.06-.44,1.07,1.07,0,0,0-.35-.31,4.15,4.15,0,0,0-.55-.23,6.92,6.92,0,0,1-.66-.26c-.38-.15-.75-.32-1.1-.5a3.38,3.38,0,0,1-.93-.68,2.41,2.41,0,0,1-.56-1,3.11,3.11,0,0,1,0-1.43,3.93,3.93,0,0,1,.63-1.43,4.82,4.82,0,0,1,2.45-1.71,5.06,5.06,0,0,1,1.47-.23,2.68,2.68,0,0,1,1,.18,3.66,3.66,0,0,1,.85.46,4.32,4.32,0,0,1,.7.65,6.24,6.24,0,0,1,.55.75l-1,.7a1.94,1.94,0,0,1-.58.31,2.11,2.11,0,0,1-.62.09,1.18,1.18,0,0,1-.45-.07,2.83,2.83,0,0,1-.35-.14c-.1-.06-.21-.1-.31-.15A1.06,1.06,0,0,0,358.47,449.62ZM347.36,447h2.33l2.7,11.85h-1.75a1.7,1.7,0,0,1-.51-.07,1.17,1.17,0,0,1-.42-.2,1.42,1.42,0,0,1-.32-.33,1.14,1.14,0,0,1-.19-.45l-.12-.49h0l-1-4.4h0l-.29-1.36a2,2,0,0,1,0-.32,2.62,2.62,0,0,1,0-.27,1,1,0,0,1,0-.25l-.11.26a2.86,2.86,0,0,1-.12.27c0,.09-.11.2-.18.31l-1,1.55-2.18,3.39h0l-.84,1.31a2.36,2.36,0,0,1-.36.42,4.07,4.07,0,0,1-.48.33,2,2,0,0,1-.52.22,1.67,1.67,0,0,1-.53.08h-1.76Zm-9.11,5.53a1.28,1.28,0,0,0,.51-.13,1.86,1.86,0,0,0,.47-.32,2,2,0,0,0,.38-.45,1.61,1.61,0,0,0,.22-.51,1.46,1.46,0,0,0,0-.51,1.3,1.3,0,0,0-.19-.45,1.07,1.07,0,0,0-.35-.32.79.79,0,0,0-.45-.13h-2.09l-.59,2.82Zm-3.41,6.32h-2.71L334.62,447h4.78a3.14,3.14,0,0,1,2.58,1.23,3.43,3.43,0,0,1,.58,1.32,3.79,3.79,0,0,1,0,1.57,4.73,4.73,0,0,1-.64,1.57,6.16,6.16,0,0,1-1.13,1.31,5.28,5.28,0,0,1-1.47.9,4.07,4.07,0,0,1-1.63.34H335.6Zm-10.38,0h-2.69l-3.95-8.19-1.72,8.19h-2.7L315.89,447h2.66a1.94,1.94,0,0,1,.68.11.75.75,0,0,1,.4.36l2.87,6.07a2.47,2.47,0,0,1,.1.29c0,.11,0,.2,0,.3s0,.17,0,.23a.38.38,0,0,1,0,.13l1.57-7.49h2.7Zm-20.95-5.93a3,3,0,0,0,0,1.3,2.63,2.63,0,0,0,.52,1.06,2.5,2.5,0,0,0,.92.71,2.82,2.82,0,0,0,1.24.27,3.62,3.62,0,0,0,1.36-.27,4.53,4.53,0,0,0,1.22-.71,4.4,4.4,0,0,0,1-1.06,3.81,3.81,0,0,0,.55-1.3,3.11,3.11,0,0,0,0-1.29,2.61,2.61,0,0,0-1.45-1.78,2.93,2.93,0,0,0-1.24-.26,3.76,3.76,0,0,0-1.35.26,4.9,4.9,0,0,0-1.23.72,4.38,4.38,0,0,0-.95,1.06A3.68,3.68,0,0,0,303.51,452.94Zm-2.71,0a7.33,7.33,0,0,1,.56-1.61,8.37,8.37,0,0,1,.92-1.44,7.76,7.76,0,0,1,1.21-1.22,7.51,7.51,0,0,1,1.43-.94,7.07,7.07,0,0,1,1.58-.61,6.7,6.7,0,0,1,1.66-.22,5.67,5.67,0,0,1,1.57.22,4.61,4.61,0,0,1,1.33.61,4.39,4.39,0,0,1,1,.94,4.46,4.46,0,0,1,.7,1.22,4.86,4.86,0,0,1,.31,1.44,5.55,5.55,0,0,1-.12,1.61,6.66,6.66,0,0,1-.55,1.61,7.81,7.81,0,0,1-2.13,2.66,7.89,7.89,0,0,1-1.43,1,8.45,8.45,0,0,1-1.58.61,6.69,6.69,0,0,1-1.66.21,5.62,5.62,0,0,1-1.57-.21,5.21,5.21,0,0,1-1.33-.61,4.24,4.24,0,0,1-1-1A4.3,4.3,0,0,1,301,456a5.19,5.19,0,0,1-.31-1.45A5.93,5.93,0,0,1,300.8,452.94Zm-8.73,0a2.85,2.85,0,0,0,0,1.3,2.75,2.75,0,0,0,.51,1.06,2.62,2.62,0,0,0,.93.71,2.82,2.82,0,0,0,1.24.27,3.33,3.33,0,0,0,1-.17,4.56,4.56,0,0,0,1-.43,2,2,0,0,1,1.05-.3,1.6,1.6,0,0,1,.71.14,1.29,1.29,0,0,1,.48.39l.56.71a12,12,0,0,1-1.3,1,10.54,10.54,0,0,1-1.34.75,8.23,8.23,0,0,1-1.37.47,5.78,5.78,0,0,1-1.35.16,5.67,5.67,0,0,1-1.57-.21,5.21,5.21,0,0,1-1.33-.61,4.48,4.48,0,0,1-1-1,4.52,4.52,0,0,1-.69-1.21,4.86,4.86,0,0,1-.31-1.45,5.93,5.93,0,0,1,.11-1.61,7.33,7.33,0,0,1,.56-1.61,8.37,8.37,0,0,1,.92-1.44,7.76,7.76,0,0,1,1.21-1.22,7.51,7.51,0,0,1,1.43-.94,6.89,6.89,0,0,1,1.58-.61,6.7,6.7,0,0,1,1.66-.22,4.94,4.94,0,0,1,1.28.17,5.4,5.4,0,0,1,1.17.47,5.33,5.33,0,0,1,1,.74,7.59,7.59,0,0,1,.88,1l-.85.7a2.21,2.21,0,0,1-.66.39,1.87,1.87,0,0,1-.76.15,1.38,1.38,0,0,1-.92-.31,2.88,2.88,0,0,0-.79-.43,2.69,2.69,0,0,0-1-.16,3.72,3.72,0,0,0-1.35.26,4.73,4.73,0,0,0-1.23.72,4.63,4.63,0,0,0-1,1.06A3.66,3.66,0,0,0,292.07,452.94Z" transform="translate(-289.23 -290.94)"/></svg>