<svg id="Capa_1" data-name="Capa 1" xmlns="http://www.w3.org/2000/svg" viewBox="0 0 164.66 172.9"><defs><style>.cls-1,.cls-2{fill:#fff;}.cls-1{fill-rule:evenodd;}</style></defs><path class="cls-1" d="M206.32,438.1a6.64,6.64,0,0,0,9.65,0,7.17,7.17,0,0,0,0-9.89,6.64,6.64,0,0,0-9.65,0,7.14,7.14,0,0,0,0,9.89m13.39,3.59a12.06,12.06,0,1,1,3.54-8.53A11.62,11.62,0,0,1,219.71,441.69Z" transform="translate(-58.59 -288.27)"/><path class="cls-1" d="M130.11,429.46a2.89,2.89,0,0,0-.91-2.19,3.21,3.21,0,0,0-2.32-.87h-2.64v6.13h2.64a3.22,3.22,0,0,0,2.31-.89,2.94,2.94,0,0,0,.92-2.18M119,444.86h5.24v-7.42h2.7a8.09,8.09,0,0,0,5.89-2.29,8.05,8.05,0,0,0,0-11.39,8.07,8.07,0,0,0-5.89-2.31H119Z" transform="translate(-58.59 -288.27)"/><path class="cls-1" d="M74.67,430.75H78a2.87,2.87,0,0,0,1.93-.63,2,2,0,0,0,.74-1.61,2,2,0,0,0-.74-1.65,3,3,0,0,0-1.93-.6H74.67Zm-5.24,14.11h5.24V435.2h.82l7.82,9.66H89.6l-8.27-10.32q4.58-1.62,4.58-6a6.9,6.9,0,0,0-2-5,7,7,0,0,0-5.24-2H69.43Z" transform="translate(-58.59 -288.27)"/><polygon class="cls-1" points="128.59 156.59 133.86 156.59 133.86 138.19 139.89 138.19 139.89 133.18 122.62 133.18 122.62 138.19 128.59 138.19 128.59 156.59"/><path class="cls-1" d="M157.83,444.86h5.48l1-2.3h0c.17-.41,1.91-4.57,3-7.2h0l.87-2v-.05l0,0h0l2.06-4.88,1.57,3.77,4.5,10.73.85,2h5.48l-10-23.41h-4.74Z" transform="translate(-58.59 -288.27)"/><path class="cls-1" d="M157.31,435.59V421.45h-5.24v14.21a4.47,4.47,0,0,1-1.21,3.3,4.75,4.75,0,0,1-6.36,0,4.51,4.51,0,0,1-1.2-3.3V421.45h-5.25v14.14a9.64,9.64,0,1,0,19.26,0" transform="translate(-58.59 -288.27)"/><rect class="cls-2" y="133.18" width="5.24" height="23.41"/><path class="cls-1" d="M152.66,294.15l-4.33,4,.43.21a16.55,16.55,0,0,1,2.23,1.29l.39.27Zm8.51,8.51-5.74,1.28.27.39a17.69,17.69,0,0,1,1.29,2.23l.21.42Zm3.11,11.63-5.59-1.76,0,.47c0,.43.05.86.05,1.29s0,.86-.05,1.29l0,.47ZM129.4,294.15l4.32,4-.43.21a16.44,16.44,0,0,0-2.22,1.29l-.39.27Zm-8.51,8.51,5.73,1.28-.27.39a19,19,0,0,0-1.29,2.23l-.2.42Zm-3.12,11.63,5.6-1.76,0,.47c0,.43,0,.86,0,1.29s0,.86,0,1.29l0,.47ZM141,296.55h0c.43,0,.86,0,1.28.05l.48,0L141,291v0l-1.75,5.59.47,0C140.17,296.57,140.59,296.55,141,296.55Zm17.24,21.94h-2.15A15.66,15.66,0,0,0,141,298.64h0A15.66,15.66,0,0,0,126,318.49h-2.16l0-.13-7.5-2.35a1.8,1.8,0,0,1,0-3.44l7.5-2.35,0-.18c.06-.23.12-.46.19-.69l.05-.17-5.32-5.79a1.78,1.78,0,0,1-.23-2.11,1.8,1.8,0,0,1,2-.86l7.68,1.72.12-.14.5-.49.13-.13-1.71-7.68a1.79,1.79,0,0,1,3-1.71l5.79,5.31.17-.05.69-.18L137,297l2.36-7.49a1.79,1.79,0,0,1,1.71-1.26h0a1.78,1.78,0,0,1,1.71,1.26L145.1,297l.17.05c.24.05.47.12.69.18l.18.05,5.78-5.31a1.8,1.8,0,0,1,3,1.71l-1.72,7.68.13.13.5.49.13.14,7.68-1.72a1.79,1.79,0,0,1,1.94.86,1.77,1.77,0,0,1-.23,2.11L158,309.18l0,.17c.06.23.13.46.18.69l.05.18,7.49,2.35a1.8,1.8,0,0,1,0,3.44l-7.49,2.35Z" transform="translate(-58.59 -288.27)"/><path class="cls-1" d="M153.81,381l-.34-.25a4.15,4.15,0,0,1-1.07-1.14,3.7,3.7,0,0,1-.43-1.09,9.8,9.8,0,0,1-.16-1.42,4.59,4.59,0,0,0-.21-1.23,1.28,1.28,0,0,0-.4-.52A1.57,1.57,0,0,0,150,375a1.76,1.76,0,0,0-1.18.7,1.68,1.68,0,0,0-.37,1.24,2.6,2.6,0,0,0,.8,1.44l.26.27L148,380.22l-.27-.27a3.75,3.75,0,0,1-.41-5.36,4.11,4.11,0,0,1,2.54-1.68,3.24,3.24,0,0,1,2.62.62,3.16,3.16,0,0,1,1,1.25,6.87,6.87,0,0,1,.41,2.11,6.46,6.46,0,0,0,.15,1.16,1.57,1.57,0,0,0,.27.51,5.26,5.26,0,0,0,.81.75l.29.23a6.34,6.34,0,0,0-1.3,1.61ZM173,373.58a1.75,1.75,0,0,1-.26,2.48,1.77,1.77,0,0,1-2.48-.26l2,2.52L171,379.45l-1.47-1.83-4.33,3.49a6.53,6.53,0,0,0-1.1-1.41l4.3-3.47-1.48-1.83,1.39-1.13,2,2.53a1.76,1.76,0,0,1,2.74-2.22Z" transform="translate(-58.59 -288.27)"/><path class="cls-1" d="M170.22,339a11.94,11.94,0,0,0,.17-2,11.17,11.17,0,1,0-22.11,2.24v.07l0,.06a4.86,4.86,0,0,0-.75,2.31l-.06.78-.28-.73a13,13,0,1,1,24.31-.5l-.23.67-.12-.7a4.28,4.28,0,0,0-.87-2.07l-.05-.07Z" transform="translate(-58.59 -288.27)"/><path class="cls-1" d="M144.42,398.7c.44.17,1,.43,1.25.53,2.43,1,3.73.27,5.84-.6a5.33,5.33,0,0,1,4.06-.13,14,14,0,0,0,3.74,1.22c2.93.19,4.37-2.55,7.92-1.22a12.1,12.1,0,0,0,3.74,1.23,8.26,8.26,0,0,0,3.43-.9,3.6,3.6,0,0,0,.26-1.35v-1.12c-1.14.38-2,1.1-3.61,1.05a12.19,12.19,0,0,1-3.76-1.2c-3.74-1.38-5,1.43-8.07,1.19a14.33,14.33,0,0,1-3.71-1.24c-3.62-1.27-5.17,1.56-8.1,1.23a10.4,10.4,0,0,1-3-1Z" transform="translate(-58.59 -288.27)"/><path class="cls-1" d="M144.42,393.67c.44.16,1,.43,1.25.53,2.43,1,3.73.26,5.84-.61a5.33,5.33,0,0,1,4.06-.12,14.78,14.78,0,0,0,3.74,1.22c2.93.19,4.37-2.55,7.92-1.22a12.36,12.36,0,0,0,3.74,1.22,9,9,0,0,0,3.69-1v-2.36c-1.14.38-2,1.09-3.61,1.05a12.2,12.2,0,0,1-3.76-1.21c-3.74-1.37-5,1.43-8.07,1.2a14.72,14.72,0,0,1-3.71-1.24c-3.62-1.27-5.17,1.55-8.1,1.22a10.36,10.36,0,0,1-3-1Z" transform="translate(-58.59 -288.27)"/><path class="cls-2" d="M134.61,311.82a.76.76,0,1,0,.76.75.76.76,0,0,0-.76-.75m0,3a2.26,2.26,0,0,1-2.26-2.26,1.48,1.48,0,0,1,0-.21,2.69,2.69,0,0,0-.29.16.75.75,0,0,1-1-.27.74.74,0,0,1,.26-1,6.49,6.49,0,0,1,6.63,0,.76.76,0,0,1-.77,1.3l-.3-.16a1.48,1.48,0,0,1,0,.21A2.26,2.26,0,0,1,134.61,314.83Z" transform="translate(-58.59 -288.27)"/><path class="cls-1" d="M140.84,320.15H104.37v77.33a6.2,6.2,0,0,0,6.18,6.18h25.72a5.71,5.71,0,0,1,4.55,2.28,5.69,5.69,0,0,1,4.55-2.28h25.72a6.2,6.2,0,0,0,6.18-6.18V320.15Zm0-2.55h42.53c-1.4.78-3.45,1.82-3.52,3.46v76.42a8.77,8.77,0,0,1-8.74,8.74H146.38a5.6,5.6,0,0,0-3.13.94,4.46,4.46,0,0,0-1.25,1.12l-.11.13h0a4.58,4.58,0,0,0-.76,1.8h-.54a4.57,4.57,0,0,0-2.47-3.23,5.67,5.67,0,0,0-2.86-.77H110.55a8.76,8.76,0,0,1-8.74-8.74V321.06c-.07-1.64-2.12-2.68-3.52-3.46h42.53Z" transform="translate(-58.59 -288.27)"/><rect class="cls-2" x="81" y="31.28" width="2.56" height="86.39"/><rect class="cls-2" x="44.13" y="72" width="76.47" height="2.56"/><path class="cls-1" d="M155.42,342.43a6.38,6.38,0,0,1,.83-2.07,2.74,2.74,0,0,0,.23-.45.51.51,0,0,0,0-.17,2.92,2.92,0,0,0-.39-.07l-.19,0a.86.86,0,0,1,.25-1.7l.16,0c1.08.14,1.78.57,1.91,1.75a2.37,2.37,0,0,1-.45,1.5,4.77,4.77,0,0,0-.56,1.24,6.71,6.71,0,0,0-.13,2.32,2.35,2.35,0,0,0,.33,1,1.63,1.63,0,0,0,1-.41v-.53l-.35-.08a.86.86,0,0,1,.45-1.66,3,3,0,0,0,1.51,0,.86.86,0,1,1,.45,1.66l-.34.08v.53a1.6,1.6,0,0,0,1,.41,2.35,2.35,0,0,0,.33-1,6.48,6.48,0,0,0-.13-2.32,4.74,4.74,0,0,0-.55-1.24,2.31,2.31,0,0,1-.45-1.5c.13-1.18.82-1.61,1.9-1.75l.16,0a.86.86,0,0,1,.25,1.7l-.19,0a3.24,3.24,0,0,0-.39.07s0,.13,0,.16a3.29,3.29,0,0,0,.23.46,6.38,6.38,0,0,1,.83,2.07c.3-.29.8-.78.8-1.11a9.56,9.56,0,0,0-.83-4.55,3.66,3.66,0,0,0-1.4-1.44c-.23-.15-.49,0-.73.05a4.73,4.73,0,0,1-3.26,0c-.24-.07-.5-.2-.74-.05a3.73,3.73,0,0,0-1.4,1.44,9.69,9.69,0,0,0-.83,4.55c0,.33.51.82.8,1.11m5.25,5.06a3.3,3.3,0,0,1-1.45-.59,3.35,3.35,0,0,1-1.45.59c.14.41,1.08.44,1.45.44S160.53,347.9,160.67,347.49Zm-7.42-5a2.38,2.38,0,0,1-.35-1.16,11.13,11.13,0,0,1,1.1-5.51,5.36,5.36,0,0,1,1.92-1.95,2.31,2.31,0,0,1,2.18-.14,3,3,0,0,0,2.24,0,2.29,2.29,0,0,1,2.17.14,5.28,5.28,0,0,1,1.92,1.95,11.15,11.15,0,0,1,1.1,5.52,2.41,2.41,0,0,1-.34,1.15,10,10,0,0,1,.47,3.35.86.86,0,1,1-1.71-.1,7,7,0,0,0-.14-1.7,2.85,2.85,0,0,0-.73,1,3.7,3.7,0,0,1-.69,1.83,2.35,2.35,0,0,1-.44,1.81,4.31,4.31,0,0,1-5.47,0,2.43,2.43,0,0,1-.44-1.81,3.7,3.7,0,0,1-.69-1.83,3,3,0,0,0-.72-1,6.52,6.52,0,0,0-.14,1.7.86.86,0,0,1-1.72.1A9.78,9.78,0,0,1,153.25,342.5Zm-1.68-7,.84-1.12a3,3,0,0,0-1.37-.46.78.78,0,0,0-.26,0,.1.1,0,0,0-.07.09C150.66,334.47,151.18,335.09,151.57,335.49ZM166,334.37l.84,1.12c.4-.4.91-1,.86-1.45,0-.05,0-.07-.06-.09C167.25,333.78,166.51,334.1,166,334.37Zm-11.37,15.28a.86.86,0,0,1,1.16.86c0,.09,0,.19,0,.3l-.13-.4A1.66,1.66,0,0,0,154.65,349.65Zm-4.31-13a3.68,3.68,0,0,1-1.33-2.85,1.81,1.81,0,0,1,1.09-1.47,3.2,3.2,0,0,1,2.39.13,4.09,4.09,0,0,1,4.17-2.33h5.11a4.08,4.08,0,0,1,4.17,2.33,3.2,3.2,0,0,1,2.39-.13,1.82,1.82,0,0,1,1.1,1.47,3.69,3.69,0,0,1-1.34,2.85l1,1.85c1.82,3.54.92,5.81-.31,9.3a14.54,14.54,0,0,1-4.6,6.49,9.06,9.06,0,0,1-4.92,2.18,8.08,8.08,0,0,1-4.05-1.53,1.66,1.66,0,0,0,.62-.49,1.8,1.8,0,0,0,.35-.93,6.83,6.83,0,0,0,3.08,1.24,6.89,6.89,0,0,0,3.14-1.29,9.82,9.82,0,0,0,.27-3,.86.86,0,1,1,1.71-.11,11.21,11.21,0,0,1,0,1.42,12.88,12.88,0,0,0,2.78-4.56l.07-.21a14.87,14.87,0,0,0,1.18-4.66,6.61,6.61,0,0,0-.85-3.06l-.9-1.74a.9.9,0,0,1-.59-.34l-1.93-2.58a.85.85,0,0,1,.17-1.2l.18-.13a2.47,2.47,0,0,0-2.68-1.45h-5.11a2.46,2.46,0,0,0-2.67,1.45l.17.13a.85.85,0,0,1,.17,1.2l-1.93,2.58a.86.86,0,0,1-.59.34l-.9,1.74a6.73,6.73,0,0,0-.85,3.06,15.15,15.15,0,0,0,1.18,4.66l.08.21a12.82,12.82,0,0,0,1.34,2.73,1.53,1.53,0,0,0-.46,1.4,1.89,1.89,0,0,0-.21.62,14.86,14.86,0,0,1-2.29-4.17c-1.24-3.49-2.14-5.76-.31-9.3Z" transform="translate(-58.59 -288.27)"/><path class="cls-2" d="M140.82,317.85a4.22,4.22,0,0,1-2.6-.94.76.76,0,0,1-.12-1.06.75.75,0,0,1,1.06-.12,2.56,2.56,0,0,0,3.32,0,.75.75,0,1,1,.94,1.18,4.22,4.22,0,0,1-2.6.94" transform="translate(-58.59 -288.27)"/><path class="cls-2" d="M138.09,308.89a.75.75,0,0,1-.38-.1,7,7,0,0,0-7.2,0,.75.75,0,0,1-1-.27.74.74,0,0,1,.26-1,8.56,8.56,0,0,1,8.74,0,.75.75,0,0,1-.39,1.4Z" transform="translate(-58.59 -288.27)"/><path class="cls-2" d="M151.94,308.89a.75.75,0,0,1-.38-.1,7,7,0,0,0-7.2,0,.75.75,0,0,1-1-.27.74.74,0,0,1,.26-1,8.56,8.56,0,0,1,8.74,0,.75.75,0,0,1-.39,1.4Z" transform="translate(-58.59 -288.27)"/><path class="cls-2" d="M147.47,311.82a.76.76,0,1,1-.75.75.76.76,0,0,1,.75-.75m0,3a2.27,2.27,0,0,0,2.27-2.26c0-.07,0-.14,0-.21l.29.16a.76.76,0,0,0,.77-1.3,6.49,6.49,0,0,0-6.63,0,.76.76,0,0,0,.77,1.3l.29-.16c0,.07,0,.14,0,.21A2.26,2.26,0,0,0,147.47,314.83Z" transform="translate(-58.59 -288.27)"/><path class="cls-2" d="M99.85,326a7.15,7.15,0,0,1-3.16,5.94,7.17,7.17,0,0,1,0,11.86,7.17,7.17,0,0,1,0,11.86,7.17,7.17,0,0,1-4,13.11v-2.54a4.64,4.64,0,1,0,0-9.27v-2.61a4.64,4.64,0,1,0,0-9.27v-2.56a4.64,4.64,0,1,0,0-9.27v-2.62a4.64,4.64,0,1,0,0-9.27v-2.54A7.18,7.18,0,0,1,99.85,326" transform="translate(-58.59 -288.27)"/><path class="cls-2" d="M182,326a7.17,7.17,0,0,0,3.15,5.94,7.18,7.18,0,0,0,0,11.86,7.18,7.18,0,0,0,0,11.86,7.17,7.17,0,0,0,4,13.11v-2.54a4.64,4.64,0,0,1,0-9.27v-2.61a4.64,4.64,0,0,1,0-9.27v-2.56a4.64,4.64,0,0,1,0-9.27v-2.62a4.64,4.64,0,0,1,0-9.27v-2.54A7.17,7.17,0,0,0,182,326" transform="translate(-58.59 -288.27)"/><path class="cls-1" d="M134.62,413.15H110.94a15.71,15.71,0,0,1-15.66-15.67V370.19h2.18v27.29A13.53,13.53,0,0,0,110.94,411h23.68Zm51.84-43v27.29a15.71,15.71,0,0,1-15.67,15.67H147.11V411h23.68a13.54,13.54,0,0,0,13.49-13.49V370.19Z" transform="translate(-58.59 -288.27)"/><path class="cls-1" d="M141,410.58a1.49,1.49,0,1,1-1.5,1.49,1.49,1.49,0,0,1,1.5-1.49" transform="translate(-58.59 -288.27)"/><path class="cls-1" d="M118.44,373v7.85H107.67V373h-1.21l.77-4.76H118.9l.75,4.76Zm-7.94,1.28H112v1.5h-1.5Zm3.65,0h1.5v1.5h-1.5ZM113,376.47h0a.85.85,0,0,1,.86.86v1.82h2.84V373h-7.37v6.15h2.81v-1.82A.86.86,0,0,1,113,376.47Zm-4.58-5.17h9.2l-.21-1.36h-8.77Z" transform="translate(-58.59 -288.27)"/><path class="cls-1" d="M152.42,351.3V356a5,5,0,0,1,1.63-.58,6.64,6.64,0,0,1,1-.1v-5.28a3.18,3.18,0,0,0-2.63,1.23M150.75,356V351.3a3.17,3.17,0,0,0-2.63-1.23v5.28a6.64,6.64,0,0,1,1,.1A5,5,0,0,1,150.75,356Zm.83-6.33a4.69,4.69,0,0,1,2.47-1.21,6.44,6.44,0,0,1,2-.05.83.83,0,0,1,.71.83v7a.82.82,0,0,1-.29.64.76.76,0,0,1-.32.17H156a5.25,5.25,0,0,0-.56,0h-.27a4.42,4.42,0,0,0-1,.11h0l-.22.06a4,4,0,0,0-2.11,1.25l-.19.24-.2-.24a4.43,4.43,0,0,0-2.86-1.37h0a4.29,4.29,0,0,0-1.24,0,.82.82,0,0,1-.67-.19.86.86,0,0,1-.29-.64v-7a.84.84,0,0,1,.72-.83,6.45,6.45,0,0,1,2,.05A4.62,4.62,0,0,1,151.58,349.7Z" transform="translate(-58.59 -288.27)"/><path class="cls-1" d="M108.93,324.14a1.76,1.76,0,1,1-1.76,1.76,1.76,1.76,0,0,1,1.76-1.76" transform="translate(-58.59 -288.27)"/><path class="cls-1" d="M135,324.14a1.76,1.76,0,1,1-1.76,1.76,1.76,1.76,0,0,1,1.76-1.76" transform="translate(-58.59 -288.27)"/><path class="cls-1" d="M108.93,354.2a1.76,1.76,0,1,1-1.76,1.76,1.76,1.76,0,0,1,1.76-1.76" transform="translate(-58.59 -288.27)"/><path class="cls-1" d="M135,354.2a1.76,1.76,0,1,1-1.76,1.76A1.76,1.76,0,0,1,135,354.2" transform="translate(-58.59 -288.27)"/><path class="cls-1" d="M126.39,335.69l-.24-.32-.27-.36a7.28,7.28,0,0,1-3.93-.11,3.52,3.52,0,0,1-.48.14,7.5,7.5,0,0,1-3.43,0l-.51.68A6.8,6.8,0,0,1,118,337a2.23,2.23,0,0,1,.09.39c.6,2.6-.94,4.6-.95,7a1.37,1.37,0,0,0,.38,1.21,6.09,6.09,0,0,0,.55.46,34.84,34.84,0,0,0,3.86,2c.33-.18.66-.34,1-.52a14.36,14.36,0,0,0,3.24-1.79,2,2,0,0,0,.36-.4c.51-.84-.41-3.71-.64-4.59a6.89,6.89,0,0,1-.09-3.74,7.32,7.32,0,0,1,.51-1.33M116,337.61a.76.76,0,0,1,.06.2c.47,1.9-1,4-1,6.62a3.34,3.34,0,0,0,1.09,2.8,6.13,6.13,0,0,0,.72.59,46.46,46.46,0,0,0,4.28,2.21c.31.16.54.33.81.5a13,13,0,0,1,2-1.07,14.64,14.64,0,0,0,3.82-2.19,3.18,3.18,0,0,0,.68-.81c1.06-1.72,0-4.64-.39-6.23a4.78,4.78,0,0,1-.09-2.65,5,5,0,0,1,.87-1.75l.18-.22c0-.1-.46-.63-.56-.76s-.39-.5-.56-.74l-1.14-1.49-1.15.29a5.11,5.11,0,0,1-3.12-.1c-.2-.08-.32-.17-.49-.25a3.52,3.52,0,0,1-1,.43,6.78,6.78,0,0,1-3.16-.21c-.2,0-.4-.13-.58-.16l-1.7,2.23c-.1.13-.52.66-.56.76a8.81,8.81,0,0,1,.62.9A4.06,4.06,0,0,1,116,337.61Z" transform="translate(-58.59 -288.27)"/><path class="cls-1" d="M136.08,373v7.85H125.32V373h-1.21l.76-4.76h11.68l.74,4.76Zm-7.94,1.28h1.51v1.5h-1.51Zm3.65,0h1.5v1.5h-1.5Zm-1.11,2.19h0a.86.86,0,0,1,.87.86v1.82h2.83V373H127v6.15h2.8v-1.82A.86.86,0,0,1,130.68,376.47Zm-4.58-5.17h9.21l-.22-1.36h-8.77Z" transform="translate(-58.59 -288.27)"/><path class="cls-1" d="M159.62,381.69a2.6,2.6,0,1,0,2.59,2.59,2.59,2.59,0,0,0-2.59-2.59m0-2.13a4.73,4.73,0,1,1-4.73,4.72A4.72,4.72,0,0,1,159.62,379.56Z" transform="translate(-58.59 -288.27)"/><path class="cls-1" d="M121.63,382.71h.81a3.26,3.26,0,0,1,1.69.47A5.3,5.3,0,0,1,126,385.7c.46,1.05.87,2.13,1.43,3.13,1.81,3.31,4.69,5.3,8.12,6.7l1.12.46-.92,2.26-1.12-.47c-4-1.62-7.25-4-9.34-7.78-.59-1.07-1-2.2-1.52-3.33a3.82,3.82,0,0,0-.88-1.43.77.77,0,0,0-.42-.1h-1.56a.77.77,0,0,0-.42.1,3.82,3.82,0,0,0-.88,1.43c-.49,1.13-.93,2.26-1.52,3.33-2.09,3.82-5.38,6.16-9.34,7.78l-1.12.47-.92-2.26,1.12-.46c3.43-1.4,6.31-3.39,8.12-6.7.56-1,1-2.08,1.43-3.13a5.3,5.3,0,0,1,1.82-2.52,3.26,3.26,0,0,1,1.69-.47h.79" transform="translate(-58.59 -288.27)"/><polygon class="cls-2" points="98.74 86.24 97.34 85.22 99.34 82.43 96.06 81.34 96.55 79.67 99.89 80.77 99.89 77.43 101.64 77.43 101.64 80.77 104.94 79.7 105.49 81.34 102.18 82.43 104.24 85.22 102.83 86.24 100.78 83.45 98.74 86.24"/><polygon class="cls-2" points="48.92 134.92 58.2 156.59 52.72 156.59 51.68 154.12 51.68 154.12 47.16 143.32 47.16 143.32 46.28 141.24 48.92 134.92"/><path class="cls-2" d="M102.51,421.45h4.26l.25.58-3.53,8.45L102,434.11h0l-.52,1.25h0l-2.84,6.84,0,.06v0Z" transform="translate(-58.59 -288.27)"/><polygon class="cls-2" points="33.4 156.59 42.64 135.01 38.55 156.59 33.4 156.59"/><polygon class="cls-1" points="52.72 156.59 49.37 137.5 48.92 134.92 46.28 141.24 52.72 156.59"/><polygon class="cls-1" points="48.42 133.76 48.17 133.18 43.91 133.18 45.88 139.86 48.42 133.76"/><polygon class="cls-1" points="38.55 156.59 42.64 135.01 38.76 144.07 38.55 156.59"/><path class="cls-2" d="M217.49,455.15h3.31v-3.81Zm3.31,3.41v-2.4h-4.7v-.86l4.84-5.58h.94v5.43h1.22v1h-1.22v2.4Zm-5.89-1v1h-5.73v-.42a2.84,2.84,0,0,1,.14-.88,4.23,4.23,0,0,1,.32-.7,3.25,3.25,0,0,1,.55-.64c.25-.24.44-.41.59-.53l.71-.52.66-.47a6.41,6.41,0,0,0,1.22-1.09,1.82,1.82,0,0,0,.34-1.16,1.46,1.46,0,0,0-.44-1.11,1.65,1.65,0,0,0-1.17-.42,1.92,1.92,0,0,0-1.3.46,1.58,1.58,0,0,0-.53,1.28h-1.1a2.65,2.65,0,0,1,.83-2,2.94,2.94,0,0,1,2.08-.77,2.88,2.88,0,0,1,1.95.68,2.37,2.37,0,0,1,.78,1.91,2.73,2.73,0,0,1-.46,1.61,6.77,6.77,0,0,1-1.58,1.48l-.6.42-.6.43c-.14.1-.29.24-.46.39a1.6,1.6,0,0,0-.4.48,1.8,1.8,0,0,0-.21.56Zm-10.76.11a1.94,1.94,0,0,0,1.49-.61,2.35,2.35,0,0,0,.57-1.67V452.9a2.35,2.35,0,0,0-.57-1.67,2.12,2.12,0,0,0-3,0,2.35,2.35,0,0,0-.57,1.67v2.46a2.35,2.35,0,0,0,.57,1.67A2,2,0,0,0,204.15,457.64Zm0,1.05a3,3,0,0,1-2.26-.93,3.37,3.37,0,0,1-.87-2.4V452.9a3.34,3.34,0,0,1,.88-2.4,3.17,3.17,0,0,1,4.5,0,3.33,3.33,0,0,1,.88,2.39v2.46a3.34,3.34,0,0,1-.88,2.4A3,3,0,0,1,204.15,458.69Zm-5-1.16v1h-5.73v-.42a2.58,2.58,0,0,1,.15-.88,3.56,3.56,0,0,1,.31-.7,3.25,3.25,0,0,1,.55-.64c.25-.24.45-.41.59-.53l.71-.52.66-.47a5.83,5.83,0,0,0,1.22-1.09,1.82,1.82,0,0,0,.35-1.16,1.43,1.43,0,0,0-.45-1.11,1.65,1.65,0,0,0-1.17-.42,1.92,1.92,0,0,0-1.3.46,1.62,1.62,0,0,0-.53,1.28h-1.1a2.65,2.65,0,0,1,.83-2,3,3,0,0,1,2.09-.77,2.85,2.85,0,0,1,1.94.68,2.37,2.37,0,0,1,.78,1.91,2.73,2.73,0,0,1-.46,1.61,6.57,6.57,0,0,1-1.58,1.48l-.6.42-.6.43c-.14.1-.29.24-.46.39a1.76,1.76,0,0,0-.4.48,2.09,2.09,0,0,0-.21.56Zm-13.87-1.92v-1.07h3.17v1.07Zm-6.6,2.95v-7.78H177l.87-1.06h1.9v8.84Zm-3-1v1H170v-.42a2.84,2.84,0,0,1,.14-.88,3.54,3.54,0,0,1,.32-.7,3.25,3.25,0,0,1,.55-.64c.25-.24.44-.41.58-.53l.71-.52.66-.47a6.22,6.22,0,0,0,1.23-1.09,1.82,1.82,0,0,0,.34-1.16,1.43,1.43,0,0,0-.45-1.11,1.65,1.65,0,0,0-1.17-.42,1.89,1.89,0,0,0-1.29.46,1.59,1.59,0,0,0-.54,1.28H170a2.65,2.65,0,0,1,.82-2,3,3,0,0,1,2.09-.77,2.88,2.88,0,0,1,1.95.68,2.37,2.37,0,0,1,.78,1.91,2.8,2.8,0,0,1-.46,1.61,6.65,6.65,0,0,1-1.59,1.48l-.59.42-.6.43c-.14.1-.3.24-.47.39a2,2,0,0,0-.4.48,2.07,2.07,0,0,0-.2.56Zm-10.77.11a2,2,0,0,0,1.5-.61,2.35,2.35,0,0,0,.57-1.67V452.9a2.35,2.35,0,0,0-.57-1.67,2,2,0,0,0-1.5-.61,1.93,1.93,0,0,0-1.48.61,2.35,2.35,0,0,0-.57,1.67v2.46a2.35,2.35,0,0,0,.57,1.67A1.93,1.93,0,0,0,164.93,457.64Zm0,1.05a2.94,2.94,0,0,1-2.25-.93,3.37,3.37,0,0,1-.87-2.4V452.9a3.37,3.37,0,0,1,.87-2.4,3.19,3.19,0,0,1,4.51,0,3.33,3.33,0,0,1,.88,2.39v2.46a3.34,3.34,0,0,1-.88,2.4A3,3,0,0,1,164.93,458.69Zm-5-1.16v1h-5.73v-.42a2.84,2.84,0,0,1,.14-.88,4.23,4.23,0,0,1,.32-.7,3.25,3.25,0,0,1,.55-.64c.25-.24.44-.41.58-.53l.71-.52.66-.47a6.22,6.22,0,0,0,1.23-1.09,1.82,1.82,0,0,0,.34-1.16,1.43,1.43,0,0,0-.45-1.11,1.61,1.61,0,0,0-1.17-.42,1.91,1.91,0,0,0-1.29.46,1.59,1.59,0,0,0-.54,1.28h-1.09a2.62,2.62,0,0,1,.83-2,2.94,2.94,0,0,1,2.08-.77,2.88,2.88,0,0,1,1.95.68,2.37,2.37,0,0,1,.78,1.91,2.73,2.73,0,0,1-.46,1.61,6.77,6.77,0,0,1-1.58,1.48l-.6.42-.6.43c-.14.1-.3.24-.47.39a1.72,1.72,0,0,0-.39.48,1.8,1.8,0,0,0-.21.56Zm-14.53-1a1.4,1.4,0,0,0,2,0,1.69,1.69,0,0,0,0-2.16,1.4,1.4,0,0,0-2,0,1.69,1.69,0,0,0,0,2.16Zm3.3,1.23a3.32,3.32,0,0,1-4.63,0,3.26,3.26,0,0,1,0-4.62,3.32,3.32,0,0,1,4.63,0,3.26,3.26,0,0,1,0,4.62Zm-7.92.88A2.64,2.64,0,0,1,139,458a2.16,2.16,0,0,1-.7-1.75V454H137v-1.63h1.25v-1.73h1.88v1.73h1.74V454h-1.74v1.93a.9.9,0,0,0,1.05,1.06,1.68,1.68,0,0,0,.69-.12v1.67A3.78,3.78,0,0,1,140.76,458.64Zm-11.1-.08v-6.22h1.88V453a2,2,0,0,1,1.73-.77A2.19,2.19,0,0,1,135,453a3,3,0,0,1,.64,2v3.6H133.8v-3.27c0-.92-.33-1.38-1-1.38a1.1,1.1,0,0,0-.9.41,1.8,1.8,0,0,0-.35,1.22v3Zm-5-4.87a1.41,1.41,0,0,0-.89.28,1.29,1.29,0,0,0-.48.72h2.66a1.24,1.24,0,0,0-.5-.75A1.37,1.37,0,0,0,124.61,453.69Zm0,5a3.25,3.25,0,0,1-2.38-.92,3.2,3.2,0,0,1-.92-2.34,3.11,3.11,0,0,1,.94-2.32,3.23,3.23,0,0,1,2.36-.92,3.52,3.52,0,0,1,1.29.24,3.19,3.19,0,0,1,1.07.68,3,3,0,0,1,.72,1.16,4.1,4.1,0,0,1,.24,1.61h-4.79a1.22,1.22,0,0,0,.45.85,1.88,1.88,0,0,0,1.86.17.87.87,0,0,0,.45-.41h2a2.94,2.94,0,0,1-1.2,1.59A3.52,3.52,0,0,1,124.66,458.7Zm-6.86-.14v-6.22h1.88v6.22Zm.94-7.07a1.17,1.17,0,1,1,.84-2,1.18,1.18,0,0,1,0,1.66A1.14,1.14,0,0,1,118.74,451.49ZM114,458.56v-3.22c0-1-.3-1.43-.9-1.43s-1.09.51-1.12,1.55v3.1h-1.88v-3.22c0-1-.3-1.43-.9-1.43a1,1,0,0,0-.82.4,2.06,2.06,0,0,0-.3,1.23v3h-1.88v-6.22H108V453a1.93,1.93,0,0,1,1.6-.77,2,2,0,0,1,1.91,1.1,1.88,1.88,0,0,1,.83-.82,2.33,2.33,0,0,1,1.09-.28,2.13,2.13,0,0,1,1.75.75,3.15,3.15,0,0,1,.62,2.06v3.55Zm-14-2a1.44,1.44,0,0,0,2,0,1.77,1.77,0,0,0,0-2.22,1.44,1.44,0,0,0-2,0,1.74,1.74,0,0,0,0,2.22Zm.6,2.14a2.62,2.62,0,0,1-2-1,3.54,3.54,0,0,1,0-4.58,2.62,2.62,0,0,1,2-1,2.06,2.06,0,0,1,1.69.76v-.62h1.88v6.22h-1.88v-.62A2.06,2.06,0,0,1,100.53,458.7Zm-5.24-.06a2.64,2.64,0,0,1-1.8-.61,2.16,2.16,0,0,1-.7-1.75V454H91.55v-1.63h1.24v-1.73h1.88v1.73h1.74V454H94.67v1.93a1.11,1.11,0,0,0,.25.81,1.14,1.14,0,0,0,.81.25,1.63,1.63,0,0,0,.68-.12v1.67A3.69,3.69,0,0,1,95.29,458.64Zm-11.1-.08v-6.22h1.88V453a2,2,0,0,1,1.73-.77,2.2,2.2,0,0,1,1.78.76,3,3,0,0,1,.64,2v3.6H88.34v-3.27c0-.92-.34-1.38-1-1.38a1.12,1.12,0,0,0-.91.41,1.85,1.85,0,0,0-.35,1.22v3Zm-5.58.14a2.11,2.11,0,0,1-1.75-.76,3.23,3.23,0,0,1-.61-2.05v-3.55h1.88v3.22c0,1,.32,1.43,1,1.43s1.17-.54,1.17-1.63v-3h1.88v6.22H80.26v-.63A1.87,1.87,0,0,1,78.61,458.7Zm-7.41,2.46h-2l1.3-3-2.59-5.86h2.05l1.55,3.84L73,452.34h2.07Zm-7.92-8.84L62.16,455h2.22Zm-4.69,6.24,3.79-8.84h1.79L68,458.56H65.89l-.78-1.87H61.45l-.79,1.87Z" transform="translate(-58.59 -288.27)"/></svg>