<svg id="Capa_1" data-name="Capa 1" xmlns="http://www.w3.org/2000/svg" viewBox="0 0 143.74 168.04"><defs><style>.cls-1,.cls-8{fill:#e01976;}.cls-2{fill:#1974f4;}.cls-3{fill:#009c39;}.cls-4{fill:#f77eb8;}.cls-4,.cls-5,.cls-6,.cls-7,.cls-8{fill-rule:evenodd;}.cls-5{fill:#63a4ff;}.cls-6{fill:#68d971;}.cls-7{fill:#fa0;}.cls-9{fill:#717e86;}</style></defs><polygon class="cls-1" points="90.75 15.77 142.05 135.6 111.78 135.6 106.04 121.92 106.04 121.92 81 62.22 81 62.23 76.18 50.68 90.75 15.77"/><path class="cls-2" d="M414,318.79h23.57L439,322,419.5,368.7,411,388.78v0l-2.93,6.93h.05c-4.65,11.17-13.5,32.42-15.74,37.78l-.15.34-.05.14Z" transform="translate(-350.99 -312.65)"/><polygon class="cls-3" points="4.93 135.6 56.02 16.28 33.38 135.6 4.93 135.6"/><polygon class="cls-4" points="111.78 135.6 90.75 15.77 76.18 50.68 111.78 135.6"/><polygon class="cls-5" points="88 9.35 86.62 6.14 63.05 6.14 73.93 43.05 88 9.35"/><polygon class="cls-6" points="33.38 135.6 56.02 16.28 34.59 66.33 33.38 135.6"/><path class="cls-7" d="M457.87,312.65a36.38,36.38,0,0,1,13.64,70.11l-2.16-5A30.91,30.91,0,1,0,445,320.91l-2.15-5a36.11,36.11,0,0,1,15-3.23" transform="translate(-350.99 -312.65)"/><path class="cls-8" d="M470.58,340.79a2.89,2.89,0,0,1-2.23-2.25l3-.81Zm-15.67,2.62a6,6,0,0,0,1-.72c1-1.1,4.24-8.18,5.24-9a42.58,42.58,0,0,1,2.59,4.53c3.36,5.92,1.24,3.8,7.17,7.17a45.42,45.42,0,0,1,4.53,2.58c-.86,1-7.94,4.21-9,5.25-.66.62-2.73,4.86-4.18,7.42l1.79,4.19,2.28-4.17,10.44,2.89-2.87-10.2,2.41-1.47c.83-.44,1.53-.85,2.31-1.28,1.06-.59,3.92-2,4.5-2.68l-9.3-5.05,2.9-10.49-10.36,2.87L461.2,326l-5.38,9.23-5-1.38,1.84,4.3a4,4,0,0,1,1.3.56,6.23,6.23,0,0,1-.6,1.08Zm4.12,9.64a5.65,5.65,0,0,0,2.8.4,5.47,5.47,0,0,0,4.83-6.2c-.66-5.93-8.93-6.21-10.69-1.35Zm3.86-4.45a1.83,1.83,0,1,1-3.37-1.44C460.37,345.15,463.82,346.48,462.89,348.6Zm7.5,6.57a8.1,8.1,0,0,1,1,3l-3-.79A3,3,0,0,1,470.39,355.17Z" transform="translate(-350.99 -312.65)"/><path class="cls-9" d="M482.31,462.05a1.61,1.61,0,0,0,1.42.65,2.46,2.46,0,0,0,1.7-.65,2.87,2.87,0,0,0,1-1.59,1.9,1.9,0,0,0-.23-1.59,1.58,1.58,0,0,0-1.41-.65,2.51,2.51,0,0,0-1.71.65,2.89,2.89,0,0,0-1,1.59,1.93,1.93,0,0,0,.24,1.59m1.19,1.65a2.5,2.5,0,0,1-2.12-.94,2.69,2.69,0,0,1-.41-2.3,4.12,4.12,0,0,1,1.45-2.3,3.89,3.89,0,0,1,2.55-.94,2.47,2.47,0,0,1,2.11.94,2.66,2.66,0,0,1,.41,2.3,4.12,4.12,0,0,1-1.45,2.3A3.88,3.88,0,0,1,483.5,463.7Zm-5-.06a1.58,1.58,0,0,1-1.27-.49,1.56,1.56,0,0,1-.2-1.42l.77-3.4h-1.32l.22-1H478l.39-1.74h1.07l-.39,1.74h1.8l-.23,1h-1.79l-.74,3.26a1,1,0,0,0,.06.83,1,1,0,0,0,.73.23,2.23,2.23,0,0,0,.79-.12l-.22,1A3.3,3.3,0,0,1,478.51,463.64Zm-7.33-.93a2.48,2.48,0,0,0,1.67-.64,2.89,2.89,0,0,0,1-1.61,1.94,1.94,0,0,0-.23-1.61,1.56,1.56,0,0,0-1.37-.64,2.47,2.47,0,0,0-1.68.64,3,3,0,0,0-1,1.61,2,2,0,0,0,.24,1.61A1.56,1.56,0,0,0,471.18,462.71Zm-.38,1a2.25,2.25,0,0,1-2-.95,2.78,2.78,0,0,1-.36-2.29,4.16,4.16,0,0,1,1.4-2.29,3.58,3.58,0,0,1,2.39-.95,2.26,2.26,0,0,1,1.2.31,1.68,1.68,0,0,1,.74.78l.22-1h1.07l-1.41,6.22H473l.22-1a3.21,3.21,0,0,1-1.1.78A3.05,3.05,0,0,1,470.8,463.7Zm-7.57,0a1.69,1.69,0,0,1-1.5-.69,2.23,2.23,0,0,1-.22-1.84l.86-3.82h1.07l-.83,3.66a1.72,1.72,0,0,0,.1,1.24,1,1,0,0,0,.93.46,1.93,1.93,0,0,0,1.37-.61,3.16,3.16,0,0,0,.87-1.66l.7-3.09h1.07l-1.41,6.22h-1.07l.22-1A2.63,2.63,0,0,1,463.23,463.7Zm-8.12-1.63a1.56,1.56,0,0,0,1.38.64,2.46,2.46,0,0,0,1.66-.64,2.89,2.89,0,0,0,1-1.61,1.94,1.94,0,0,0-.23-1.61,1.56,1.56,0,0,0-1.37-.64,2.48,2.48,0,0,0-1.67.64,2.92,2.92,0,0,0-1,1.61A1.94,1.94,0,0,0,455.11,462.07Zm-1.44,4.11H452.6l2-8.83h1.07l-.22,1a3.31,3.31,0,0,1,1.1-.78,3.09,3.09,0,0,1,1.34-.31,2.23,2.23,0,0,1,2,.95,2.78,2.78,0,0,1,.36,2.29,4.16,4.16,0,0,1-1.4,2.29,3.58,3.58,0,0,1-2.39.95,2.28,2.28,0,0,1-1.2-.31,1.68,1.68,0,0,1-.74-.78Zm-5.4-3.47a2.48,2.48,0,0,0,1.66-.64,2.89,2.89,0,0,0,1-1.61,1.94,1.94,0,0,0-.23-1.61,1.56,1.56,0,0,0-1.37-.64,2.47,2.47,0,0,0-1.68.64,2.92,2.92,0,0,0-1,1.61,1.94,1.94,0,0,0,.23,1.61A1.57,1.57,0,0,0,448.27,462.71Zm-.39,1a2.25,2.25,0,0,1-2-.95,2.78,2.78,0,0,1-.36-2.29,4.22,4.22,0,0,1,1.4-2.29,3.58,3.58,0,0,1,2.39-.95,2.32,2.32,0,0,1,1.21.31,1.71,1.71,0,0,1,.73.78l.22-1h1.07l-1.41,6.22H450.1l.22-1a3.27,3.27,0,0,1-1.09.78A3.1,3.1,0,0,1,447.88,463.7Zm-6.88-.13,1.41-6.22h1.07l-.28,1.2a2.38,2.38,0,0,1,.89-.92,2.25,2.25,0,0,1,1.15-.35,2.12,2.12,0,0,1,.47.05l-.25,1.11a1.4,1.4,0,0,0-.56-.1,1.93,1.93,0,0,0-1.28.56,3,3,0,0,0-.85,1.59l-.7,3.08Zm-3.32,0,2-8.84h1.15l-2,8.84Zm-5.38-4.95a1.45,1.45,0,0,0-1.13-.45,2.52,2.52,0,0,0-1.39.43,2.64,2.64,0,0,0-1,1.3h3.88A1.63,1.63,0,0,0,432.3,458.62Zm-2.37,5.08a2.4,2.4,0,0,1-2-.92,2.75,2.75,0,0,1-.36-2.32,4.13,4.13,0,0,1,1.39-2.32,3.73,3.73,0,0,1,2.5-.92,2.15,2.15,0,0,1,2,1,3.1,3.1,0,0,1,.15,2.51h-5.06a1.57,1.57,0,0,0,.3,1.41,1.6,1.6,0,0,0,1.31.57,2.43,2.43,0,0,0,2-1.05h1.09a3.68,3.68,0,0,1-1.33,1.45A3.73,3.73,0,0,1,429.93,463.7Zm-7.55-1a2.48,2.48,0,0,0,1.67-.64,3,3,0,0,0,1-1.61,2,2,0,0,0-.23-1.61,1.56,1.56,0,0,0-1.38-.64,2.51,2.51,0,0,0-1.68.64,3,3,0,0,0-1,1.61,2,2,0,0,0,.24,1.61A1.56,1.56,0,0,0,422.38,462.71Zm-.38,1a2.23,2.23,0,0,1-2-.95,2.78,2.78,0,0,1-.36-2.29,4.16,4.16,0,0,1,1.4-2.29,3.55,3.55,0,0,1,2.38-.95,2.29,2.29,0,0,1,1.21.31,1.68,1.68,0,0,1,.74.78l.92-4.08h1.08l-2.12,9.34h-1.07l.21-1a3.17,3.17,0,0,1-1.09.78A3.09,3.09,0,0,1,422,463.7Zm-11.55-1.65a1.61,1.61,0,0,0,1.42.65,2.51,2.51,0,0,0,1.71-.65,2.91,2.91,0,0,0,.95-1.59,1.9,1.9,0,0,0-.23-1.59,1.58,1.58,0,0,0-1.41-.65,2.51,2.51,0,0,0-1.71.65,3,3,0,0,0-1,1.59A1.93,1.93,0,0,0,410.45,462.05Zm1.2,1.65a2.51,2.51,0,0,1-2.13-.94,2.66,2.66,0,0,1-.4-2.3,4,4,0,0,1,1.45-2.3,3.88,3.88,0,0,1,2.54-.94,2.47,2.47,0,0,1,2.11.94,2.63,2.63,0,0,1,.41,2.3,4.07,4.07,0,0,1-1.45,2.3A3.86,3.86,0,0,1,411.65,463.7Zm-10.08-.13,1.41-6.22h1.07l-.21,1a2.72,2.72,0,0,1,2.22-1.09,1.79,1.79,0,0,1,1.56.69,2.23,2.23,0,0,1,.23,1.83l-.87,3.83h-1.06l.83-3.67a1.57,1.57,0,0,0-.12-1.24,1,1,0,0,0-1-.45,2,2,0,0,0-1.43.61,3.11,3.11,0,0,0-.9,1.67l-.7,3.08Zm-4.56,0,1.42-6.22h1.07l-.28,1.2a2.38,2.38,0,0,1,.89-.92,2.25,2.25,0,0,1,1.14-.35,2.21,2.21,0,0,1,.48.05l-.25,1.11a1.42,1.42,0,0,0-.57-.1,1.93,1.93,0,0,0-1.27.56,3,3,0,0,0-.86,1.59l-.7,3.08Zm-2.21-4.95a1.45,1.45,0,0,0-1.13-.45,2.5,2.5,0,0,0-1.39.43,2.66,2.66,0,0,0-1,1.3h3.89A1.67,1.67,0,0,0,394.8,458.62Zm-2.37,5.08a2.37,2.37,0,0,1-2-.92,2.71,2.71,0,0,1-.37-2.32,4.19,4.19,0,0,1,1.39-2.32,3.76,3.76,0,0,1,2.51-.92,2.15,2.15,0,0,1,2,1,3.09,3.09,0,0,1,.16,2.51H391a1.57,1.57,0,0,0,1.62,2,2.4,2.4,0,0,0,2-1.05h1.1a3.75,3.75,0,0,1-3.37,2Zm-5.73-.13,1.41-6.22h1.07l-1.41,6.22Zm2.92-8.1a.9.9,0,0,1-.58.21.62.62,0,0,1-.5-.22.6.6,0,0,1-.1-.54.93.93,0,0,1,.34-.54,1,1,0,0,1,.6-.22.56.56,0,0,1,.49.22.7.7,0,0,1,.09.54A1,1,0,0,1,389.62,455.47Zm-8.84,6.6a1.55,1.55,0,0,0,1.37.64,2.5,2.5,0,0,0,1.67-.64,3,3,0,0,0,1-1.61,2,2,0,0,0-.24-1.61,1.55,1.55,0,0,0-1.37-.64,2.5,2.5,0,0,0-1.67.64,3,3,0,0,0-1,1.61A2,2,0,0,0,380.78,462.07Zm1.31,1.63a2.29,2.29,0,0,1-1.21-.31,1.73,1.73,0,0,1-.74-.78l-.22,1h-1.07l2.12-9.34H382l-.92,4.08a3.27,3.27,0,0,1,1.09-.78,3.1,3.1,0,0,1,1.35-.31,2.23,2.23,0,0,1,1.95.95,2.7,2.7,0,0,1,.36,2.29,4.2,4.2,0,0,1-1.39,2.29A3.6,3.6,0,0,1,382.09,463.7Zm-9.25-1.65a1.63,1.63,0,0,0,1.43.65,2.48,2.48,0,0,0,1.7-.65,2.87,2.87,0,0,0,1-1.59,1.93,1.93,0,0,0-.24-1.59,1.58,1.58,0,0,0-1.41-.65,2.51,2.51,0,0,0-1.71.65,2.87,2.87,0,0,0-1,1.59A1.93,1.93,0,0,0,372.84,462.05Zm1.2,1.65a2.49,2.49,0,0,1-2.12-.94,2.66,2.66,0,0,1-.41-2.3,4.12,4.12,0,0,1,1.45-2.3,3.89,3.89,0,0,1,2.55-.94,2.48,2.48,0,0,1,2.11.94,2.66,2.66,0,0,1,.41,2.3,4.12,4.12,0,0,1-1.45,2.3A3.88,3.88,0,0,1,374,463.7Zm-8.79,0a3.52,3.52,0,0,1-3-1.31,3.7,3.7,0,0,1-.57-3.26,5.74,5.74,0,0,1,2.05-3.26,5.53,5.53,0,0,1,3.57-1.31,3.72,3.72,0,0,1,2.45.8,2.91,2.91,0,0,1,1.1,2H369.6a2,2,0,0,0-.87-1.21,2.84,2.84,0,0,0-1.65-.46,4.1,4.1,0,0,0-2.68,1,4.41,4.41,0,0,0-1.53,2.47,2.84,2.84,0,0,0,.41,2.47,2.6,2.6,0,0,0,2.22,1,3.77,3.77,0,0,0,2.43-.85,4.48,4.48,0,0,0,1.5-2.18h-3.29l.24-1.08h4.49a6.07,6.07,0,0,1-2,3.77A5.32,5.32,0,0,1,365.25,463.72Z" transform="translate(-350.99 -312.65)"/><path class="cls-2" d="M492.25,480.58h-7.89l2.48-11.86h7.89l-.53,2.54H489l-.44,2.07h4.22l-.53,2.53h-4.22l-.46,2.19h5.19Zm-10.21,0h-2.71l1.66-7.91-4.64,7.91H474l-1.39-7.91L471,480.58h-2.7l2.48-11.86h3a1.78,1.78,0,0,1,.53.08,1.21,1.21,0,0,1,.44.22,1.12,1.12,0,0,1,.32.33,1.26,1.26,0,0,1,.16.42l.83,5.94a2.33,2.33,0,0,1,0,.29v.32c0,.11,0,.24,0,.36a2.06,2.06,0,0,1,.12-.35c0-.1.08-.21.13-.32a1.39,1.39,0,0,1,.16-.3l3.3-5.94a1.83,1.83,0,0,1,.35-.44,2.21,2.21,0,0,1,.47-.33,2.25,2.25,0,0,1,.53-.21,2.5,2.5,0,0,1,.54-.07h2.95Zm-18.62-6.33a1.19,1.19,0,0,0,.51-.12,2.16,2.16,0,0,0,.48-.33,2,2,0,0,0,.37-.45,1.61,1.61,0,0,0,.22-.51,1.46,1.46,0,0,0,0-.51,1.49,1.49,0,0,0-.19-.45,1.07,1.07,0,0,0-.35-.32.84.84,0,0,0-.45-.12h-2.08l-.59,2.81ZM460,480.58H457.3l2.49-11.86h4.65a3.69,3.69,0,0,1,1.2.18,3.37,3.37,0,0,1,.93.46,2.74,2.74,0,0,1,.66.7,3.09,3.09,0,0,1,.41.86,3.78,3.78,0,0,1,.16.95,4,4,0,0,1-.09,1,4.19,4.19,0,0,1-.3.93,4.24,4.24,0,0,1-.52.92,5.38,5.38,0,0,1-.75.85,6.81,6.81,0,0,1-1,.77l2.26,4.27h-2.31l-.24,0a1.16,1.16,0,0,1-.38-.11,1.65,1.65,0,0,1-.42-.27,1.55,1.55,0,0,1-.36-.51L462.25,477h-1.48Zm-5.48,0h-2.71l2.48-11.86H457Zm-3.88-7-.53,2.53h-4.35l-.94,4.51h-2.71l2.49-11.86h7.89l-.53,2.54h-5.19l-.48,2.28Zm-23.51,1.11a3.11,3.11,0,0,0,0,1.29,2.67,2.67,0,0,0,.52,1.07,2.5,2.5,0,0,0,.92.71,3,3,0,0,0,1.25.26,3.8,3.8,0,0,0,1.35-.26,4.58,4.58,0,0,0,1.23-.71,4.9,4.9,0,0,0,1-1.07,3.85,3.85,0,0,0,.54-1.29,2.85,2.85,0,0,0,0-1.3,2.63,2.63,0,0,0-.52-1.06,2.5,2.5,0,0,0-.92-.71,2.85,2.85,0,0,0-1.24-.27,3.62,3.62,0,0,0-1.36.27,4.53,4.53,0,0,0-1.22.71,4.4,4.4,0,0,0-1,1.06A3.81,3.81,0,0,0,427.14,474.65Zm-2.7,0A6.16,6.16,0,0,1,425,473a7.52,7.52,0,0,1,.91-1.45,8.72,8.72,0,0,1,1.21-1.22,8,8,0,0,1,3-1.55,6.74,6.74,0,0,1,1.66-.21,5.67,5.67,0,0,1,1.57.21,5.21,5.21,0,0,1,1.33.61,4.66,4.66,0,0,1,1,.94,4.74,4.74,0,0,1,.69,1.22,5.2,5.2,0,0,1,.32,1.45,6.41,6.41,0,0,1-.12,1.61,6.84,6.84,0,0,1-.56,1.61,7.81,7.81,0,0,1-.92,1.44,8.21,8.21,0,0,1-1.21,1.22,7.51,7.51,0,0,1-1.43.94,7.38,7.38,0,0,1-1.58.61,6.26,6.26,0,0,1-1.66.22,5.32,5.32,0,0,1-1.57-.22,4.89,4.89,0,0,1-1.33-.61,4.39,4.39,0,0,1-1-.94,4.61,4.61,0,0,1-.7-1.22,5.2,5.2,0,0,1-.31-1.44A5.55,5.55,0,0,1,424.44,474.65Zm-4.21-3.33a2,2,0,0,0-.42,0,1.19,1.19,0,0,0-.39.12.9.9,0,0,0-.3.21.54.54,0,0,0-.15.29.52.52,0,0,0,0,.42.91.91,0,0,0,.35.26,4.75,4.75,0,0,0,.62.22c.25.07.55.17.88.29a5.69,5.69,0,0,1,1.13.57,2.91,2.91,0,0,1,.81.79,2.73,2.73,0,0,1,.41,1,3.19,3.19,0,0,1,0,1.26,4,4,0,0,1-.7,1.57,5.28,5.28,0,0,1-1.22,1.23,5.73,5.73,0,0,1-1.58.8,5.33,5.33,0,0,1-1.7.29,3.85,3.85,0,0,1-1.34-.22,3.34,3.34,0,0,1-1.08-.6,3.29,3.29,0,0,1-.78-.92,3.47,3.47,0,0,1-.4-1.16l1-.5a2.5,2.5,0,0,1,.48-.18,1.71,1.71,0,0,1,.49-.07,1.17,1.17,0,0,1,.61.15,5.14,5.14,0,0,1,.49.32,5.14,5.14,0,0,0,.49.32,1.29,1.29,0,0,0,.64.15,2.51,2.51,0,0,0,.56-.08,3.23,3.23,0,0,0,.59-.22,2,2,0,0,0,.49-.37,1.06,1.06,0,0,0,.27-.51.61.61,0,0,0-.05-.45,1,1,0,0,0-.35-.3,3.76,3.76,0,0,0-.56-.24,6.62,6.62,0,0,1-.65-.25c-.38-.16-.75-.32-1.11-.51a3.69,3.69,0,0,1-.92-.67,2.44,2.44,0,0,1-.56-1,2.82,2.82,0,0,1,0-1.42,3.79,3.79,0,0,1,.63-1.43,4.57,4.57,0,0,1,1.09-1.06,5.36,5.36,0,0,1,1.36-.66,5,5,0,0,1,1.47-.22,2.94,2.94,0,0,1,1,.17,3.7,3.7,0,0,1,.85.47,4.32,4.32,0,0,1,.7.65,6.15,6.15,0,0,1,.55.74l-1,.71a1.89,1.89,0,0,1-.58.3,2.06,2.06,0,0,1-.62.09,1.53,1.53,0,0,1-.45-.06l-.34-.15-.31-.14A.87.87,0,0,0,420.23,471.32Zm-11.11-2.6h2.33l2.69,11.86H412.4a2.09,2.09,0,0,1-.51-.07,1.56,1.56,0,0,1-.43-.21,1.44,1.44,0,0,1-.32-.33,1.32,1.32,0,0,1-.18-.44l-.12-.49h0l-1-4.41h0l-.28-1.36a1.87,1.87,0,0,1,0-.32c0-.1,0-.19,0-.26a1,1,0,0,1,0-.25c0,.08-.07.16-.11.25a2.86,2.86,0,0,1-.12.27,3.49,3.49,0,0,1-.18.31l-1,1.56-2.18,3.38h0l-.84,1.32a2,2,0,0,1-.36.41,3.21,3.21,0,0,1-.48.34,2.62,2.62,0,0,1-.52.22,2.07,2.07,0,0,1-.53.08h-1.76ZM400,474.25a1.18,1.18,0,0,0,.5-.12,1.78,1.78,0,0,0,.48-.33,2.06,2.06,0,0,0,.38-.45,1.61,1.61,0,0,0,.22-.51,1.46,1.46,0,0,0,0-.51,1.49,1.49,0,0,0-.19-.45,1.19,1.19,0,0,0-.35-.32.89.89,0,0,0-.45-.12h-2.09l-.59,2.81Zm-3.41,6.33h-2.71l2.49-11.86h4.78a3.17,3.17,0,0,1,1.49.34,3,3,0,0,1,1.08.9,3.18,3.18,0,0,1,.58,1.31,3.78,3.78,0,0,1,0,1.57,5,5,0,0,1-.64,1.57,6,6,0,0,1-1.13,1.32,5.8,5.8,0,0,1-1.47.9,4.24,4.24,0,0,1-1.63.33h-2.08Zm-10.39,0h-2.68l-3.95-8.2-1.72,8.2h-2.7l2.49-11.86h2.66a1.72,1.72,0,0,1,.68.12.75.75,0,0,1,.4.36l2.87,6.07a1.23,1.23,0,0,1,.09.29,1.67,1.67,0,0,1,.06.29,2.32,2.32,0,0,1,0,.24.23.23,0,0,1,0,.12l1.57-7.49h2.7Zm-20.94-5.93a2.81,2.81,0,0,0,.51,2.36,2.62,2.62,0,0,0,.93.71A3,3,0,0,0,368,478a3.82,3.82,0,0,0,1.36-.26,4.53,4.53,0,0,0,1.22-.71,4.44,4.44,0,0,0,1-1.07,3.68,3.68,0,0,0,.55-1.29,3.16,3.16,0,0,0,0-1.3,2.63,2.63,0,0,0-.52-1.06,2.46,2.46,0,0,0-.93-.71,2.82,2.82,0,0,0-1.24-.27,3.54,3.54,0,0,0-1.35.27,4.43,4.43,0,0,0-1.23.71,4.85,4.85,0,0,0-1,1.06A4,4,0,0,0,365.27,474.65Zm-2.71,0a7,7,0,0,1,.56-1.61,8.08,8.08,0,0,1,.92-1.45,8.72,8.72,0,0,1,1.21-1.22,8,8,0,0,1,3-1.55,6.69,6.69,0,0,1,1.66-.21,5.67,5.67,0,0,1,1.57.21,5.21,5.21,0,0,1,1.33.61,4.61,4.61,0,0,1,1,.94,4.77,4.77,0,0,1,.7,1.22,5.19,5.19,0,0,1,.31,1.45,5.6,5.6,0,0,1-.12,1.61,6.81,6.81,0,0,1-.55,1.61,8.37,8.37,0,0,1-.92,1.44,8.21,8.21,0,0,1-1.21,1.22,7.84,7.84,0,0,1-1.43.94,7.67,7.67,0,0,1-1.59.61,6.19,6.19,0,0,1-1.65.22,5.23,5.23,0,0,1-1.57-.22,4.89,4.89,0,0,1-1.33-.61,4.2,4.2,0,0,1-1-.94,4.35,4.35,0,0,1-.7-1.22,5.2,5.2,0,0,1-.31-1.44A5.91,5.91,0,0,1,362.56,474.65Zm-8.73,0a2.81,2.81,0,0,0,.51,2.36,2.62,2.62,0,0,0,.93.71,2.93,2.93,0,0,0,1.24.26,3.22,3.22,0,0,0,1-.16,4.94,4.94,0,0,0,1-.43,2,2,0,0,1,1.05-.3,1.64,1.64,0,0,1,.71.13,1.41,1.41,0,0,1,.48.4l.56.7a13.52,13.52,0,0,1-1.3,1,9.35,9.35,0,0,1-1.34.74,8.55,8.55,0,0,1-1.37.47,5.81,5.81,0,0,1-1.35.17,5.32,5.32,0,0,1-1.57-.22,4.89,4.89,0,0,1-1.33-.61,4.43,4.43,0,0,1-1-.94,4.58,4.58,0,0,1-.69-1.22,4.86,4.86,0,0,1-.31-1.44,5.91,5.91,0,0,1,.11-1.61,7,7,0,0,1,.56-1.61,7.56,7.56,0,0,1,.92-1.45,8.72,8.72,0,0,1,1.21-1.22,8,8,0,0,1,3-1.55,6.69,6.69,0,0,1,1.66-.21,4.83,4.83,0,0,1,2.45.64,5.64,5.64,0,0,1,1,.74,6.9,6.9,0,0,1,.88,1l-.85.71a2.73,2.73,0,0,1-.66.39,1.91,1.91,0,0,1-.76.15,1.44,1.44,0,0,1-.92-.31,2.75,2.75,0,0,0-1.75-.6,3.54,3.54,0,0,0-1.35.27,4.43,4.43,0,0,0-1.23.71,4.85,4.85,0,0,0-1,1.06A3.78,3.78,0,0,0,353.83,474.65Z" transform="translate(-350.99 -312.65)"/></svg>